<?xml version="1.0" encoding="UTF-8" standalone="no"?><svg xmlns="http://www.w3.org/2000/svg" xmlns:xlink="http://www.w3.org/1999/xlink" contentStyleType="text/css" height="727px" preserveAspectRatio="none" style="width:1344px;height:727px;background:#FFFFFF;" version="1.1" viewBox="0 0 1344 727" width="1344px" zoomAndPan="magnify"><defs/><g><!--MD5=[4fe5b49ec755d3c8108617aac372e03e]
class Pelicula--><g id="elem_Pelicula"><rect codeLine="1" fill="#F1F1F1" height="145.7813" id="Pelicula" rx="2.5" ry="2.5" style="stroke:#181818;stroke-width:0.5;" width="162" x="99" y="385"/><ellipse cx="149.75" cy="401" fill="#ADD1B2" rx="11" ry="11" style="stroke:#181818;stroke-width:1.0;"/><path d="M152.7188,406.6406 Q152.1406,406.9375 151.5,407.0781 Q150.8594,407.2344 150.1563,407.2344 Q147.6563,407.2344 146.3281,405.5938 Q145.0156,403.9375 145.0156,400.8125 Q145.0156,397.6875 146.3281,396.0313 Q147.6563,394.375 150.1563,394.375 Q150.8594,394.375 151.5,394.5313 Q152.1563,394.6875 152.7188,394.9844 L152.7188,397.7031 Q152.0938,397.125 151.5,396.8594 Q150.9063,396.5781 150.2813,396.5781 Q148.9375,396.5781 148.25,397.6563 Q147.5625,398.7188 147.5625,400.8125 Q147.5625,402.9063 148.25,403.9844 Q148.9375,405.0469 150.2813,405.0469 Q150.9063,405.0469 151.5,404.7813 Q152.0938,404.5 152.7188,403.9219 L152.7188,406.6406 Z " fill="#000000"/><text fill="#000000" font-family="sans-serif" font-size="14" lengthAdjust="spacing" textLength="52" x="170.25" y="405.8467">Pelicula</text><line style="stroke:#181818;stroke-width:0.5;" x1="100" x2="260" y1="417" y2="417"/><ellipse cx="110" cy="430.6484" fill="none" rx="3" ry="3" style="stroke:#038048;stroke-width:1.0;"/><text fill="#000000" font-family="sans-serif" font-size="14" lengthAdjust="spacing" textLength="50" x="119" y="433.9951">Long id</text><ellipse cx="110" cy="446.9453" fill="none" rx="3" ry="3" style="stroke:#038048;stroke-width:1.0;"/><text fill="#000000" font-family="sans-serif" font-size="14" lengthAdjust="spacing" textLength="78" x="119" y="450.292">String titulo</text><ellipse cx="110" cy="463.2422" fill="none" rx="3" ry="3" style="stroke:#038048;stroke-width:1.0;"/><text fill="#000000" font-family="sans-serif" font-size="14" lengthAdjust="spacing" textLength="124" x="119" y="466.5889">String descripcion</text><ellipse cx="110" cy="479.5391" fill="none" rx="3" ry="3" style="stroke:#038048;stroke-width:1.0;"/><text fill="#000000" font-family="sans-serif" font-size="14" lengthAdjust="spacing" textLength="106" x="119" y="482.8857">String urlPoster</text><ellipse cx="110" cy="495.8359" fill="none" rx="3" ry="3" style="stroke:#038048;stroke-width:1.0;"/><text fill="#000000" font-family="sans-serif" font-size="14" lengthAdjust="spacing" textLength="128" x="119" y="499.1826">Double calificacion</text><ellipse cx="110" cy="512.1328" fill="none" rx="3" ry="3" style="stroke:#038048;stroke-width:1.0;"/><text fill="#000000" font-family="sans-serif" font-size="14" lengthAdjust="spacing" textLength="136" x="119" y="515.4795">String fechaEstreno</text><line style="stroke:#181818;stroke-width:0.5;" x1="100" x2="260" y1="522.7813" y2="522.7813"/></g><!--MD5=[c274f561f8ba9c696c7cf38d640dd7e5]
class RepositorioPeliculas--><g id="elem_RepositorioPeliculas"><rect codeLine="10" fill="#F1F1F1" height="129.4844" id="RepositorioPeliculas" rx="2.5" ry="2.5" style="stroke:#181818;stroke-width:0.5;" width="394" x="296" y="393.5"/><ellipse cx="419.25" cy="409.5" fill="#ADD1B2" rx="11" ry="11" style="stroke:#181818;stroke-width:1.0;"/><path d="M422.2188,415.1406 Q421.6406,415.4375 421,415.5781 Q420.3594,415.7344 419.6563,415.7344 Q417.1563,415.7344 415.8281,414.0938 Q414.5156,412.4375 414.5156,409.3125 Q414.5156,406.1875 415.8281,404.5313 Q417.1563,402.875 419.6563,402.875 Q420.3594,402.875 421,403.0313 Q421.6563,403.1875 422.2188,403.4844 L422.2188,406.2031 Q421.5938,405.625 421,405.3594 Q420.4063,405.0781 419.7813,405.0781 Q418.4375,405.0781 417.75,406.1563 Q417.0625,407.2188 417.0625,409.3125 Q417.0625,411.4063 417.75,412.4844 Q418.4375,413.5469 419.7813,413.5469 Q420.4063,413.5469 421,413.2813 Q421.5938,413 422.2188,412.4219 L422.2188,415.1406 Z " fill="#000000"/><text fill="#000000" font-family="sans-serif" font-size="14" lengthAdjust="spacing" textLength="139" x="439.75" y="414.3467">RepositorioPeliculas</text><line style="stroke:#181818;stroke-width:0.5;" x1="297" x2="689" y1="425.5" y2="425.5"/><line style="stroke:#181818;stroke-width:0.5;" x1="297" x2="689" y1="433.5" y2="433.5"/><ellipse cx="307" cy="447.1484" fill="#84BE84" rx="3" ry="3" style="stroke:#038048;stroke-width:1.0;"/><text fill="#000000" font-family="sans-serif" font-size="14" lengthAdjust="spacing" textLength="288" x="316" y="450.4951">obtenerPeliculas(): Flow&lt;List&lt;Pelicula&gt;&gt;</text><ellipse cx="307" cy="463.4453" fill="#84BE84" rx="3" ry="3" style="stroke:#038048;stroke-width:1.0;"/><text fill="#000000" font-family="sans-serif" font-size="14" lengthAdjust="spacing" textLength="323" x="316" y="466.792">obtenerPeliculaPorId(id: Long): Flow&lt;Pelicula&gt;</text><ellipse cx="307" cy="479.7422" fill="#84BE84" rx="3" ry="3" style="stroke:#038048;stroke-width:1.0;"/><text fill="#000000" font-family="sans-serif" font-size="14" lengthAdjust="spacing" textLength="368" x="316" y="483.0889">buscarPeliculas(query: String): Flow&lt;List&lt;Pelicula&gt;&gt;</text><ellipse cx="307" cy="496.0391" fill="#84BE84" rx="3" ry="3" style="stroke:#038048;stroke-width:1.0;"/><text fill="#000000" font-family="sans-serif" font-size="14" lengthAdjust="spacing" textLength="264" x="316" y="499.3857">agregarPelicula(pelicula: Pelicula): Unit</text><ellipse cx="307" cy="512.3359" fill="#84BE84" rx="3" ry="3" style="stroke:#038048;stroke-width:1.0;"/><text fill="#000000" font-family="sans-serif" font-size="14" lengthAdjust="spacing" textLength="206" x="316" y="515.6826">eliminarPelicula(id: Long): Unit</text></g><!--MD5=[79733181a644b4aec06081d17d6981c1]
class VistaModeloPelicula--><g id="elem_VistaModeloPelicula"><rect codeLine="18" fill="#F1F1F1" height="129.4844" id="VistaModeloPelicula" rx="2.5" ry="2.5" style="stroke:#181818;stroke-width:0.5;" width="394" x="139" y="196"/><ellipse cx="263.75" cy="212" fill="#ADD1B2" rx="11" ry="11" style="stroke:#181818;stroke-width:1.0;"/><path d="M266.7188,217.6406 Q266.1406,217.9375 265.5,218.0781 Q264.8594,218.2344 264.1563,218.2344 Q261.6563,218.2344 260.3281,216.5938 Q259.0156,214.9375 259.0156,211.8125 Q259.0156,208.6875 260.3281,207.0313 Q261.6563,205.375 264.1563,205.375 Q264.8594,205.375 265.5,205.5313 Q266.1563,205.6875 266.7188,205.9844 L266.7188,208.7031 Q266.0938,208.125 265.5,207.8594 Q264.9063,207.5781 264.2813,207.5781 Q262.9375,207.5781 262.25,208.6563 Q261.5625,209.7188 261.5625,211.8125 Q261.5625,213.9063 262.25,214.9844 Q262.9375,216.0469 264.2813,216.0469 Q264.9063,216.0469 265.5,215.7813 Q266.0938,215.5 266.7188,214.9219 L266.7188,217.6406 Z " fill="#000000"/><text fill="#000000" font-family="sans-serif" font-size="14" lengthAdjust="spacing" textLength="136" x="284.25" y="216.8467">VistaModeloPelicula</text><line style="stroke:#181818;stroke-width:0.5;" x1="140" x2="532" y1="228" y2="228"/><line style="stroke:#181818;stroke-width:0.5;" x1="140" x2="532" y1="236" y2="236"/><ellipse cx="150" cy="249.6484" fill="#84BE84" rx="3" ry="3" style="stroke:#038048;stroke-width:1.0;"/><text fill="#000000" font-family="sans-serif" font-size="14" lengthAdjust="spacing" textLength="354" x="159" y="252.9951">obtenerTodasLasPeliculas(): Flow&lt;List&lt;Pelicula&gt;&gt;</text><ellipse cx="150" cy="265.9453" fill="#84BE84" rx="3" ry="3" style="stroke:#038048;stroke-width:1.0;"/><text fill="#000000" font-family="sans-serif" font-size="14" lengthAdjust="spacing" textLength="323" x="159" y="269.292">obtenerPeliculaPorId(id: Long): Flow&lt;Pelicula&gt;</text><ellipse cx="150" cy="282.2422" fill="#84BE84" rx="3" ry="3" style="stroke:#038048;stroke-width:1.0;"/><text fill="#000000" font-family="sans-serif" font-size="14" lengthAdjust="spacing" textLength="368" x="159" y="285.5889">buscarPeliculas(query: String): Flow&lt;List&lt;Pelicula&gt;&gt;</text><ellipse cx="150" cy="298.5391" fill="#84BE84" rx="3" ry="3" style="stroke:#038048;stroke-width:1.0;"/><text fill="#000000" font-family="sans-serif" font-size="14" lengthAdjust="spacing" textLength="264" x="159" y="301.8857">agregarPelicula(pelicula: Pelicula): Unit</text><ellipse cx="150" cy="314.8359" fill="#84BE84" rx="3" ry="3" style="stroke:#038048;stroke-width:1.0;"/><text fill="#000000" font-family="sans-serif" font-size="14" lengthAdjust="spacing" textLength="206" x="159" y="318.1826">eliminarPelicula(id: Long): Unit</text></g><!--MD5=[f702789b921bec500d4019905b6e3a02]
class ServicioApiPelicula--><g id="elem_ServicioApiPelicula"><rect codeLine="26" fill="#F1F1F1" height="96.8906" id="ServicioApiPelicula" rx="2.5" ry="2.5" style="stroke:#181818;stroke-width:0.5;" width="394" x="82" y="607"/><ellipse cx="211.75" cy="623" fill="#ADD1B2" rx="11" ry="11" style="stroke:#181818;stroke-width:1.0;"/><path d="M214.7188,628.6406 Q214.1406,628.9375 213.5,629.0781 Q212.8594,629.2344 212.1563,629.2344 Q209.6563,629.2344 208.3281,627.5938 Q207.0156,625.9375 207.0156,622.8125 Q207.0156,619.6875 208.3281,618.0313 Q209.6563,616.375 212.1563,616.375 Q212.8594,616.375 213.5,616.5313 Q214.1563,616.6875 214.7188,616.9844 L214.7188,619.7031 Q214.0938,619.125 213.5,618.8594 Q212.9063,618.5781 212.2813,618.5781 Q210.9375,618.5781 210.25,619.6563 Q209.5625,620.7188 209.5625,622.8125 Q209.5625,624.9063 210.25,625.9844 Q210.9375,627.0469 212.2813,627.0469 Q212.9063,627.0469 213.5,626.7813 Q214.0938,626.5 214.7188,625.9219 L214.7188,628.6406 Z " fill="#000000"/><text fill="#000000" font-family="sans-serif" font-size="14" lengthAdjust="spacing" textLength="126" x="232.25" y="627.8467">ServicioApiPelicula</text><line style="stroke:#181818;stroke-width:0.5;" x1="83" x2="475" y1="639" y2="639"/><line style="stroke:#181818;stroke-width:0.5;" x1="83" x2="475" y1="647" y2="647"/><ellipse cx="93" cy="660.6484" fill="#84BE84" rx="3" ry="3" style="stroke:#038048;stroke-width:1.0;"/><text fill="#000000" font-family="sans-serif" font-size="14" lengthAdjust="spacing" textLength="288" x="102" y="663.9951">obtenerPeliculas(): Flow&lt;List&lt;Pelicula&gt;&gt;</text><ellipse cx="93" cy="676.9453" fill="#84BE84" rx="3" ry="3" style="stroke:#038048;stroke-width:1.0;"/><text fill="#000000" font-family="sans-serif" font-size="14" lengthAdjust="spacing" textLength="323" x="102" y="680.292">obtenerPeliculaPorId(id: Long): Flow&lt;Pelicula&gt;</text><ellipse cx="93" cy="693.2422" fill="#84BE84" rx="3" ry="3" style="stroke:#038048;stroke-width:1.0;"/><text fill="#000000" font-family="sans-serif" font-size="14" lengthAdjust="spacing" textLength="368" x="102" y="696.5889">buscarPeliculas(query: String): Flow&lt;List&lt;Pelicula&gt;&gt;</text></g><!--MD5=[1216aa3f6b2aff08be3c79c90d78c551]
class BaseDeDatosPelicula--><g id="elem_BaseDeDatosPelicula"><rect codeLine="32" fill="#F1F1F1" height="64.2969" id="BaseDeDatosPelicula" rx="2.5" ry="2.5" style="stroke:#181818;stroke-width:0.5;" width="203" x="704.5" y="39.5"/><ellipse cx="729.85" cy="55.5" fill="#ADD1B2" rx="11" ry="11" style="stroke:#181818;stroke-width:1.0;"/><path d="M732.8188,61.1406 Q732.2406,61.4375 731.6,61.5781 Q730.9594,61.7344 730.2563,61.7344 Q727.7563,61.7344 726.4281,60.0938 Q725.1156,58.4375 725.1156,55.3125 Q725.1156,52.1875 726.4281,50.5313 Q727.7563,48.875 730.2563,48.875 Q730.9594,48.875 731.6,49.0313 Q732.2563,49.1875 732.8188,49.4844 L732.8188,52.2031 Q732.1938,51.625 731.6,51.3594 Q731.0063,51.0781 730.3813,51.0781 Q729.0375,51.0781 728.35,52.1563 Q727.6625,53.2188 727.6625,55.3125 Q727.6625,57.4063 728.35,58.4844 Q729.0375,59.5469 730.3813,59.5469 Q731.0063,59.5469 731.6,59.2813 Q732.1938,59 732.8188,58.4219 L732.8188,61.1406 Z " fill="#000000"/><text fill="#000000" font-family="sans-serif" font-size="14" lengthAdjust="spacing" textLength="148" x="746.15" y="60.3467">BaseDeDatosPelicula</text><line style="stroke:#181818;stroke-width:0.5;" x1="705.5" x2="906.5" y1="71.5" y2="71.5"/><line style="stroke:#181818;stroke-width:0.5;" x1="705.5" x2="906.5" y1="79.5" y2="79.5"/><ellipse cx="715.5" cy="93.1484" fill="#84BE84" rx="3" ry="3" style="stroke:#038048;stroke-width:1.0;"/><text fill="#000000" font-family="sans-serif" font-size="14" lengthAdjust="spacing" textLength="177" x="724.5" y="96.4951">daoPelicula(): DaoPelicula</text></g><!--MD5=[350f8108d334be921def1e6cecca5aaf]
class DaoPelicula--><g id="elem_DaoPelicula"><rect codeLine="36" fill="#F1F1F1" height="129.4844" id="DaoPelicula" rx="2.5" ry="2.5" style="stroke:#181818;stroke-width:0.5;" width="394" x="943" y="7"/><ellipse cx="1095.75" cy="23" fill="#ADD1B2" rx="11" ry="11" style="stroke:#181818;stroke-width:1.0;"/><path d="M1098.7188,28.6406 Q1098.1406,28.9375 1097.5,29.0781 Q1096.8594,29.2344 1096.1563,29.2344 Q1093.6563,29.2344 1092.3281,27.5938 Q1091.0156,25.9375 1091.0156,22.8125 Q1091.0156,19.6875 1092.3281,18.0313 Q1093.6563,16.375 1096.1563,16.375 Q1096.8594,16.375 1097.5,16.5313 Q1098.1563,16.6875 1098.7188,16.9844 L1098.7188,19.7031 Q1098.0938,19.125 1097.5,18.8594 Q1096.9063,18.5781 1096.2813,18.5781 Q1094.9375,18.5781 1094.25,19.6563 Q1093.5625,20.7188 1093.5625,22.8125 Q1093.5625,24.9063 1094.25,25.9844 Q1094.9375,27.0469 1096.2813,27.0469 Q1096.9063,27.0469 1097.5,26.7813 Q1098.0938,26.5 1098.7188,25.9219 L1098.7188,28.6406 Z " fill="#000000"/><text fill="#000000" font-family="sans-serif" font-size="14" lengthAdjust="spacing" textLength="80" x="1116.25" y="27.8467">DaoPelicula</text><line style="stroke:#181818;stroke-width:0.5;" x1="944" x2="1336" y1="39" y2="39"/><line style="stroke:#181818;stroke-width:0.5;" x1="944" x2="1336" y1="47" y2="47"/><ellipse cx="954" cy="60.6484" fill="#84BE84" rx="3" ry="3" style="stroke:#038048;stroke-width:1.0;"/><text fill="#000000" font-family="sans-serif" font-size="14" lengthAdjust="spacing" textLength="288" x="963" y="63.9951">obtenerPeliculas(): Flow&lt;List&lt;Pelicula&gt;&gt;</text><ellipse cx="954" cy="76.9453" fill="#84BE84" rx="3" ry="3" style="stroke:#038048;stroke-width:1.0;"/><text fill="#000000" font-family="sans-serif" font-size="14" lengthAdjust="spacing" textLength="323" x="963" y="80.292">obtenerPeliculaPorId(id: Long): Flow&lt;Pelicula&gt;</text><ellipse cx="954" cy="93.2422" fill="#84BE84" rx="3" ry="3" style="stroke:#038048;stroke-width:1.0;"/><text fill="#000000" font-family="sans-serif" font-size="14" lengthAdjust="spacing" textLength="263" x="963" y="96.5889">insertarPelicula(pelicula: Pelicula): Unit</text><ellipse cx="954" cy="109.5391" fill="#84BE84" rx="3" ry="3" style="stroke:#038048;stroke-width:1.0;"/><text fill="#000000" font-family="sans-serif" font-size="14" lengthAdjust="spacing" textLength="206" x="963" y="112.8857">eliminarPelicula(id: Long): Unit</text><ellipse cx="954" cy="125.8359" fill="#84BE84" rx="3" ry="3" style="stroke:#038048;stroke-width:1.0;"/><text fill="#000000" font-family="sans-serif" font-size="14" lengthAdjust="spacing" textLength="368" x="963" y="129.1826">buscarPeliculas(query: String): Flow&lt;List&lt;Pelicula&gt;&gt;</text></g><!--MD5=[54b67a90e4f512159197a49188912b6b]
class RepositorioBaseDeDatosPelicula--><g id="elem_RepositorioBaseDeDatosPelicula"><rect codeLine="44" fill="#F1F1F1" height="129.4844" id="RepositorioBaseDeDatosPelicula" rx="2.5" ry="2.5" style="stroke:#181818;stroke-width:0.5;" width="394" x="511" y="591"/><ellipse cx="590.25" cy="607" fill="#ADD1B2" rx="11" ry="11" style="stroke:#181818;stroke-width:1.0;"/><path d="M593.2188,612.6406 Q592.6406,612.9375 592,613.0781 Q591.3594,613.2344 590.6563,613.2344 Q588.1563,613.2344 586.8281,611.5938 Q585.5156,609.9375 585.5156,606.8125 Q585.5156,603.6875 586.8281,602.0313 Q588.1563,600.375 590.6563,600.375 Q591.3594,600.375 592,600.5313 Q592.6563,600.6875 593.2188,600.9844 L593.2188,603.7031 Q592.5938,603.125 592,602.8594 Q591.4063,602.5781 590.7813,602.5781 Q589.4375,602.5781 588.75,603.6563 Q588.0625,604.7188 588.0625,606.8125 Q588.0625,608.9063 588.75,609.9844 Q589.4375,611.0469 590.7813,611.0469 Q591.4063,611.0469 592,610.7813 Q592.5938,610.5 593.2188,609.9219 L593.2188,612.6406 Z " fill="#000000"/><text fill="#000000" font-family="sans-serif" font-size="14" lengthAdjust="spacing" textLength="227" x="610.75" y="611.8467">RepositorioBaseDeDatosPelicula</text><line style="stroke:#181818;stroke-width:0.5;" x1="512" x2="904" y1="623" y2="623"/><line style="stroke:#181818;stroke-width:0.5;" x1="512" x2="904" y1="631" y2="631"/><ellipse cx="522" cy="644.6484" fill="#84BE84" rx="3" ry="3" style="stroke:#038048;stroke-width:1.0;"/><text fill="#000000" font-family="sans-serif" font-size="14" lengthAdjust="spacing" textLength="288" x="531" y="647.9951">obtenerPeliculas(): Flow&lt;List&lt;Pelicula&gt;&gt;</text><ellipse cx="522" cy="660.9453" fill="#84BE84" rx="3" ry="3" style="stroke:#038048;stroke-width:1.0;"/><text fill="#000000" font-family="sans-serif" font-size="14" lengthAdjust="spacing" textLength="323" x="531" y="664.292">obtenerPeliculaPorId(id: Long): Flow&lt;Pelicula&gt;</text><ellipse cx="522" cy="677.2422" fill="#84BE84" rx="3" ry="3" style="stroke:#038048;stroke-width:1.0;"/><text fill="#000000" font-family="sans-serif" font-size="14" lengthAdjust="spacing" textLength="368" x="531" y="680.5889">buscarPeliculas(query: String): Flow&lt;List&lt;Pelicula&gt;&gt;</text><ellipse cx="522" cy="693.5391" fill="#84BE84" rx="3" ry="3" style="stroke:#038048;stroke-width:1.0;"/><text fill="#000000" font-family="sans-serif" font-size="14" lengthAdjust="spacing" textLength="264" x="531" y="696.8857">agregarPelicula(pelicula: Pelicula): Unit</text><ellipse cx="522" cy="709.8359" fill="#84BE84" rx="3" ry="3" style="stroke:#038048;stroke-width:1.0;"/><text fill="#000000" font-family="sans-serif" font-size="14" lengthAdjust="spacing" textLength="206" x="531" y="713.1826">eliminarPelicula(id: Long): Unit</text></g><!--MD5=[37d5e050478ce82ce0e6caf7500be892]
class PantallaDetallePelicula--><g id="elem_PantallaDetallePelicula"><rect codeLine="52" fill="#F1F1F1" height="64.2969" id="PantallaDetallePelicula" rx="2.5" ry="2.5" style="stroke:#181818;stroke-width:0.5;" width="310" x="7" y="39.5"/><ellipse cx="81.25" cy="55.5" fill="#ADD1B2" rx="11" ry="11" style="stroke:#181818;stroke-width:1.0;"/><path d="M84.2188,61.1406 Q83.6406,61.4375 83,61.5781 Q82.3594,61.7344 81.6563,61.7344 Q79.1563,61.7344 77.8281,60.0938 Q76.5156,58.4375 76.5156,55.3125 Q76.5156,52.1875 77.8281,50.5313 Q79.1563,48.875 81.6563,48.875 Q82.3594,48.875 83,49.0313 Q83.6563,49.1875 84.2188,49.4844 L84.2188,52.2031 Q83.5938,51.625 83,51.3594 Q82.4063,51.0781 81.7813,51.0781 Q80.4375,51.0781 79.75,52.1563 Q79.0625,53.2188 79.0625,55.3125 Q79.0625,57.4063 79.75,58.4844 Q80.4375,59.5469 81.7813,59.5469 Q82.4063,59.5469 83,59.2813 Q83.5938,59 84.2188,58.4219 L84.2188,61.1406 Z " fill="#000000"/><text fill="#000000" font-family="sans-serif" font-size="14" lengthAdjust="spacing" textLength="153" x="101.75" y="60.3467">PantallaDetallePelicula</text><line style="stroke:#181818;stroke-width:0.5;" x1="8" x2="316" y1="71.5" y2="71.5"/><line style="stroke:#181818;stroke-width:0.5;" x1="8" x2="316" y1="79.5" y2="79.5"/><ellipse cx="18" cy="93.1484" fill="#84BE84" rx="3" ry="3" style="stroke:#038048;stroke-width:1.0;"/><text fill="#000000" font-family="sans-serif" font-size="14" lengthAdjust="spacing" textLength="284" x="27" y="96.4951">mostrarDetallesPelicula(pelicula: Pelicula)</text></g><!--MD5=[facd54a96fe1e97f9a0aec705b241106]
class PantallaInicio--><g id="elem_PantallaInicio"><rect codeLine="56" fill="#F1F1F1" height="64.2969" id="PantallaInicio" rx="2.5" ry="2.5" style="stroke:#181818;stroke-width:0.5;" width="317" x="352.5" y="39.5"/><ellipse cx="462.75" cy="55.5" fill="#ADD1B2" rx="11" ry="11" style="stroke:#181818;stroke-width:1.0;"/><path d="M465.7188,61.1406 Q465.1406,61.4375 464.5,61.5781 Q463.8594,61.7344 463.1563,61.7344 Q460.6563,61.7344 459.3281,60.0938 Q458.0156,58.4375 458.0156,55.3125 Q458.0156,52.1875 459.3281,50.5313 Q460.6563,48.875 463.1563,48.875 Q463.8594,48.875 464.5,49.0313 Q465.1563,49.1875 465.7188,49.4844 L465.7188,52.2031 Q465.0938,51.625 464.5,51.3594 Q463.9063,51.0781 463.2813,51.0781 Q461.9375,51.0781 461.25,52.1563 Q460.5625,53.2188 460.5625,55.3125 Q460.5625,57.4063 461.25,58.4844 Q461.9375,59.5469 463.2813,59.5469 Q463.9063,59.5469 464.5,59.2813 Q465.0938,59 465.7188,58.4219 L465.7188,61.1406 Z " fill="#000000"/><text fill="#000000" font-family="sans-serif" font-size="14" lengthAdjust="spacing" textLength="88" x="483.25" y="60.3467">PantallaInicio</text><line style="stroke:#181818;stroke-width:0.5;" x1="353.5" x2="668.5" y1="71.5" y2="71.5"/><line style="stroke:#181818;stroke-width:0.5;" x1="353.5" x2="668.5" y1="79.5" y2="79.5"/><ellipse cx="363.5" cy="93.1484" fill="#84BE84" rx="3" ry="3" style="stroke:#038048;stroke-width:1.0;"/><text fill="#000000" font-family="sans-serif" font-size="14" lengthAdjust="spacing" textLength="291" x="372.5" y="96.4951">mostrarPeliculas(peliculas: List&lt;Pelicula&gt;)</text></g><!--MD5=[a585fcd9996d0450d169c3d4fa02ecb3]
link RepositorioPeliculas to ServicioApiPelicula--><g id="link_RepositorioPeliculas_ServicioApiPelicula"><path codeLine="60" d="M423.22,522.74 C398.38,545.44 370.47,570.94 345.87,593.41 " fill="none" id="RepositorioPeliculas-to-ServicioApiPelicula" style="stroke:#181818;stroke-width:1.0;"/><polygon fill="none" points="350.53,598.64,331.04,606.96,341.08,588.3,350.53,598.64" style="stroke:#181818;stroke-width:1.0;"/></g><!--MD5=[d328bb332c1744332cb98e108be13a50]
link RepositorioPeliculas to RepositorioBaseDeDatosPelicula--><g id="link_RepositorioPeliculas_RepositorioBaseDeDatosPelicula"><path codeLine="61" d="M563.1,522.74 C582.24,540.15 603.19,559.19 623.06,577.26 " fill="none" id="RepositorioPeliculas-to-RepositorioBaseDeDatosPelicula" style="stroke:#181818;stroke-width:1.0;"/><polygon fill="none" points="627.91,572.21,637.99,590.84,618.49,582.57,627.91,572.21" style="stroke:#181818;stroke-width:1.0;"/></g><!--MD5=[b4a4a8c5df9f2be2c11fcf72b7003565]
link VistaModeloPelicula to RepositorioPeliculas--><g id="link_VistaModeloPelicula_RepositorioPeliculas"><path codeLine="62" d="M387.19,325.24 C403.63,345.72 421.9,368.47 438.57,389.22 " fill="none" id="VistaModeloPelicula-to-RepositorioPeliculas" style="stroke:#181818;stroke-width:1.0;"/><polygon fill="#181818" points="441.88,393.34,439.3685,383.8168,438.7513,389.4398,433.1282,388.8227,441.88,393.34" style="stroke:#181818;stroke-width:1.0;"/></g><!--MD5=[bacd9968b80b8f9a81413ab1a1363909]
link VistaModeloPelicula to Pelicula--><g id="link_VistaModeloPelicula_Pelicula"><path codeLine="63" d="M285.14,325.24 C271,342.96 255.51,362.37 240.86,380.73 " fill="none" id="VistaModeloPelicula-to-Pelicula" style="stroke:#181818;stroke-width:1.0;"/><polygon fill="#181818" points="237.55,384.87,246.2937,380.3371,240.6717,380.9643,240.0445,375.3423,237.55,384.87" style="stroke:#181818;stroke-width:1.0;"/></g><!--MD5=[ead943db3d62d2b3c89a752335180eb2]
link PantallaInicio to VistaModeloPelicula--><g id="link_PantallaInicio_VistaModeloPelicula"><path codeLine="65" d="M481.71,103.8 C459.18,127.88 427.22,162.03 398.97,192.21 " fill="none" id="PantallaInicio-to-VistaModeloPelicula" style="stroke:#181818;stroke-width:1.0;"/><polygon fill="#181818" points="395.54,195.88,404.6056,192.031,398.9521,192.2252,398.7579,186.5717,395.54,195.88" style="stroke:#181818;stroke-width:1.0;"/></g><!--MD5=[821194da7b3645cf17ef455c19b444b8]
link PantallaDetallePelicula to VistaModeloPelicula--><g id="link_PantallaDetallePelicula_VistaModeloPelicula"><path codeLine="66" d="M191.12,103.8 C213.53,127.88 245.31,162.03 273.39,192.21 " fill="none" id="PantallaDetallePelicula-to-VistaModeloPelicula" style="stroke:#181818;stroke-width:1.0;"/><polygon fill="#181818" points="276.8,195.88,273.5821,186.5717,273.3879,192.2252,267.7344,192.031,276.8,195.88" style="stroke:#181818;stroke-width:1.0;"/></g><!--MD5=[cb86a987ef75700ddbfc626efb77cc88]
@startuml
class Pelicula {
  + Long id
  + String titulo
  + String descripcion
  + String urlPoster
  + Double calificacion
  + String fechaEstreno
}

class RepositorioPeliculas {
  + obtenerPeliculas(): Flow<List<Pelicula>>
  + obtenerPeliculaPorId(id: Long): Flow<Pelicula>
  + buscarPeliculas(query: String): Flow<List<Pelicula>>
  + agregarPelicula(pelicula: Pelicula): Unit
  + eliminarPelicula(id: Long): Unit
}

class VistaModeloPelicula {
  + obtenerTodasLasPeliculas(): Flow<List<Pelicula>>
  + obtenerPeliculaPorId(id: Long): Flow<Pelicula>
  + buscarPeliculas(query: String): Flow<List<Pelicula>>
  + agregarPelicula(pelicula: Pelicula): Unit
  + eliminarPelicula(id: Long): Unit
}

class ServicioApiPelicula {
  + obtenerPeliculas(): Flow<List<Pelicula>>
  + obtenerPeliculaPorId(id: Long): Flow<Pelicula>
  + buscarPeliculas(query: String): Flow<List<Pelicula>>
}

class BaseDeDatosPelicula {
  + daoPelicula(): DaoPelicula
}

class DaoPelicula {
  + obtenerPeliculas(): Flow<List<Pelicula>>
  + obtenerPeliculaPorId(id: Long): Flow<Pelicula>
  + insertarPelicula(pelicula: Pelicula): Unit
  + eliminarPelicula(id: Long): Unit
  + buscarPeliculas(query: String): Flow<List<Pelicula>>
}

class RepositorioBaseDeDatosPelicula {
  + obtenerPeliculas(): Flow<List<Pelicula>>
  + obtenerPeliculaPorId(id: Long): Flow<Pelicula>
  + buscarPeliculas(query: String): Flow<List<Pelicula>>
  + agregarPelicula(pelicula: Pelicula): Unit
  + eliminarPelicula(id: Long): Unit
}

class PantallaDetallePelicula {
  + mostrarDetallesPelicula(pelicula: Pelicula)
}

class PantallaInicio {
  + mostrarPeliculas(peliculas: List<Pelicula>)
}

RepositorioPeliculas - -|> ServicioApiPelicula
RepositorioPeliculas - -|> RepositorioBaseDeDatosPelicula
VistaModeloPelicula - -> RepositorioPeliculas
VistaModeloPelicula - -> Pelicula

PantallaInicio - -> VistaModeloPelicula
PantallaDetallePelicula - -> VistaModeloPelicula
@enduml

PlantUML version 1.2022.7(Mon Aug 22 17:01:30 UTC 2022)
(GPL source distribution)
Java Runtime: OpenJDK Runtime Environment
JVM: OpenJDK 64-Bit Server VM
Default Encoding: UTF-8
Language: en
Country: null
--></g></svg>